<?xml version="1.0" encoding="utf-8"?>
<!-- Generator: Adobe Illustrator 24.0.1, SVG Export Plug-In . SVG Version: 6.00 Build 0)  -->
<svg version="1.1" id="Layer_1" xmlns="http://www.w3.org/2000/svg" xmlns:xlink="http://www.w3.org/1999/xlink" x="0px" y="0px"
	 viewBox="0 0 512 512" style="enable-background:new 0 0 512 512;" xml:space="preserve">
<style type="text/css">
	.st0{fill:#FFFFFF;}
	.st1{font-family:'MyriadPro-Semibold';}
	.st2{font-size:231.4714px;}
	.st3{font-size:211.1842px;}
</style>
<g>
	<path class="st0" d="M352.2,484.5h-7.7l-8.7-34.7c-1.2-4.8-5.5-8.1-10.4-8.1h-37.5v-16.1H320c5.9,0,10.7-4.8,10.7-10.7
		c0-5.9-4.8-10.7-10.7-10.7v-5.4c0-67.3-52-122.7-117.9-128.2V254h16.1c5.9,0,10.7-4.8,10.7-10.7s-4.8-10.7-10.7-10.7h-53.6
		c-5.9,0-10.7,4.8-10.7,10.7s4.8,10.7,10.7,10.7h16.1v16.5C114.8,276,62.8,331.4,62.8,398.7v5.4c-5.9,0-10.7,4.8-10.7,10.7
		c0,5.9,4.8,10.7,10.7,10.7H95v16.1H57.4c-4.9,0-9.2,3.3-10.4,8.1l-8.7,34.7h-7.7c-5.9,0-10.7,4.8-10.7,10.7
		c0,5.9,4.8,10.7,10.7,10.7h321.5c5.9,0,10.7-4.8,10.7-10.7C362.9,489.3,358.1,484.5,352.2,484.5z M84.2,398.7
		c0-59.1,48.1-107.2,107.2-107.2s107.2,48.1,107.2,107.2v5.4c-32.6,0-204.8,0-214.3,0L84.2,398.7L84.2,398.7z M116.4,425.5h150v16.1
		h-150C116.4,441.6,116.4,425.5,116.4,425.5z M60.5,484.5l5.4-21.4H317l5.4,21.4H60.5z"/>
	<path class="st0" d="M30.7,345.1h21.4c5.9,0,10.7-4.8,10.7-10.7c0-5.9-4.8-10.7-10.7-10.7H30.7c-5.9,0-10.7,4.8-10.7,10.7
		C19.9,340.3,24.7,345.1,30.7,345.1z"/>
	<path class="st0" d="M330.7,345.1h21.4c5.9,0,10.7-4.8,10.7-10.7c0-5.9-4.8-10.7-10.7-10.7h-21.4c-5.9,0-10.7,4.8-10.7,10.7
		C320,340.3,324.8,345.1,330.7,345.1z"/>
	<path class="st0" d="M85.3,243.5c4.2,4.2,11,4.2,15.2,0s4.2-11,0-15.2l-15.2-15.2c-4.2-4.2-11-4.2-15.2,0s-4.2,11,0,15.2
		L85.3,243.5z"/>
	<path class="st0" d="M289.9,246.6c2.7,0,5.5-1,7.6-3.1l15.2-15.2c4.2-4.2,4.2-11,0-15.2s-11-4.2-15.2,0l-15.2,15.2
		C275.6,235.1,280.5,246.6,289.9,246.6L289.9,246.6z"/>
</g>
<text transform="matrix(1 0 0 1 130.4004 197.4356)" class="st0 st1 st2">24</text>
<text transform="matrix(1 0 0 1 378.5752 197.4356)" class="st0 st1 st3">h</text>
</svg>
